<svg id="Layer_1" data-name="Layer 1" xmlns="http://www.w3.org/2000/svg" viewBox="0 0 50 50"><defs><style>.cls-1{fill:#dff4f0;}.cls-2{fill:#fff;}.cls-3{fill:#22d6b4;}.cls-4{fill:#525666;}</style></defs><title>Browse solutions</title><path class="cls-1" d="M44.57,14.92a15.62,15.62,0,0,0-30.38.74A11.6,11.6,0,0,1,10.43,22,14.53,14.53,0,1,0,33.64,37.78a12.44,12.44,0,0,1,4.72-6.06A15.59,15.59,0,0,0,44.57,14.92Z"/><path class="cls-2" d="M36.36,17.59A11.38,11.38,0,0,0,22.5,6.49a11.36,11.36,0,0,0-6.22,18.4,16.41,16.41,0,0,1,3.8,10.61v.61h9.63v-.37a17.81,17.81,0,0,1,4.17-11.06A11.33,11.33,0,0,0,36.36,17.59Z"/><path class="cls-3" d="M9.22,28.15A.35.35,0,0,1,9,28.06,7.27,7.27,0,0,0,5.27,26.5a.36.36,0,0,1-.3-.23A.38.38,0,0,1,5,25.89a7.21,7.21,0,0,0,1.57-3.7.36.36,0,0,1,.23-.31.38.38,0,0,1,.38.06,7.2,7.2,0,0,0,3.71,1.56.35.35,0,0,1,.3.23.38.38,0,0,1-.05.38,7.05,7.05,0,0,0-1.57,3.7.4.4,0,0,1-.23.31A.4.4,0,0,1,9.22,28.15ZM6,25.86A7.82,7.82,0,0,1,9,27.1a8,8,0,0,1,1.25-3,7.82,7.82,0,0,1-3-1.24A7.84,7.84,0,0,1,6,25.86Z"/><circle class="cls-3" cx="15.03" cy="38.09" r="0.84"/><circle class="cls-3" cx="40.81" cy="16.93" r="1.38"/><path class="cls-4" d="M31.62,28.52a.33.33,0,0,1-.17,0,.36.36,0,0,1-.16-.5,20.38,20.38,0,0,1,2.3-3.54A10.85,10.85,0,0,0,36,17.59,11,11,0,0,0,31.91,9a11.09,11.09,0,0,0-9.33-2.19,10.6,10.6,0,0,0-3.91,1.71.38.38,0,0,1-.53-.09.37.37,0,0,1,.1-.52,11.25,11.25,0,0,1,4.18-1.83,11.83,11.83,0,0,1,10,2.34,11.73,11.73,0,0,1,1.79,16.45A20.49,20.49,0,0,0,32,28.32.36.36,0,0,1,31.62,28.52Z"/><path class="cls-4" d="M29.71,36.49H20.08a.38.38,0,0,1-.37-.38V35.5A16.09,16.09,0,0,0,16,25.14a11.78,11.78,0,0,1-2.45-10.27,11.69,11.69,0,0,1,1.78-4,.37.37,0,0,1,.52-.09.38.38,0,0,1,.1.52,12.89,12.89,0,0,0-.71,1.16,10.8,10.8,0,0,0-1,2.59,11,11,0,0,0,2.29,9.62A16.83,16.83,0,0,1,20.46,35.5v.24h8.87A16.37,16.37,0,0,1,30,31.27a.38.38,0,1,1,.72.21,15.61,15.61,0,0,0-.61,4.26v.37A.38.38,0,0,1,29.71,36.49Z"/><path class="cls-4" d="M30.13,38.47H19.85a.38.38,0,0,1-.38-.38.37.37,0,0,1,.38-.37H30.13a.37.37,0,0,1,.38.37A.38.38,0,0,1,30.13,38.47Z"/><path class="cls-2" d="M29.12,39.59a4.13,4.13,0,0,1-8.26,0Z"/><path class="cls-3" d="M28.12,39.59a3.91,3.91,0,0,1-3.63,4.13,3.91,3.91,0,0,1-3.63-4.13Z"/><path class="cls-4" d="M25,44.09a4.51,4.51,0,0,1-4.5-4.5v-.38h6.69a.38.38,0,1,1,0,.75H21.26a3.75,3.75,0,0,0,7.48-.37.38.38,0,0,1,.38-.38.37.37,0,0,1,.37.38A4.51,4.51,0,0,1,25,44.09Z"/><path class="cls-4" d="M23.7,33.47a.38.38,0,0,1-.38-.38V24.16H21.06a2.53,2.53,0,0,1,0-5.05h.49a2.53,2.53,0,0,1,2.52,2.53v1.77h1.84a.38.38,0,0,1,.38.38.37.37,0,0,1-.38.37H24.07v8.93A.38.38,0,0,1,23.7,33.47ZM21.06,19.86a1.78,1.78,0,0,0,0,3.55h2.26V21.64a1.78,1.78,0,0,0-1.77-1.78Z"/><path class="cls-4" d="M26.29,33.47a.38.38,0,0,1-.38-.38V24.16H24.07a.37.37,0,0,1-.38-.37.38.38,0,0,1,.38-.38h1.84V21.64a2.53,2.53,0,0,1,2.53-2.53h.48a2.53,2.53,0,0,1,0,5.05H26.66v8.93A.38.38,0,0,1,26.29,33.47Zm.37-10.06h2.26a1.78,1.78,0,0,0,0-3.55h-.48a1.78,1.78,0,0,0-1.78,1.78Z"/><path class="cls-3" d="M33.45,14.43a.36.36,0,0,1-.34-.23,8.4,8.4,0,0,0-6.42-5.44.38.38,0,0,1-.3-.44.36.36,0,0,1,.43-.3,9.11,9.11,0,0,1,7,5.89.37.37,0,0,1-.2.49Z"/></svg>